<svg width="156" height="114" viewBox="0 0 156 114" fill="none" xmlns="http://www.w3.org/2000/svg">
<path d="M118.551 31.283L125.599 19.0235L129.406 12.5414L122.357 0.281829V0H84.7192L98.8158 24.5191L102.763 31.283H118.551Z" fill="white"/>
<path d="M40.8797 113.577L83.1691 40.0199L88.3846 31.0014L74.288 6.48225L70.3411 0.141113H10.8543L3.80604 12.4007L0 18.8827L7.04823 31.1423V31.4241H52.1569L16.9157 92.7219L11.982 101.459L19.0302 113.718V114H40.8797" fill="white"/>
<path d="M99.8028 113.576H121.37L149.563 64.5382L154.497 56.0837L147.449 43.8241V43.5422H125.74L111.644 68.0614L110.657 69.8934L96.5605 45.3742L95.5742 43.5422L81.4776 68.0614L77.5308 74.825L98.6753 111.604L99.8028 113.576Z" fill="white"/>
</svg>
