<svg width="32" height="32" viewBox="0 0 32 32" fill="none" xmlns="http://www.w3.org/2000/svg">
<path d="M27.0612 13.0615L17.0612 23.0615C16.9218 23.2013 16.7563 23.3123 16.5739 23.388C16.3916 23.4637 16.1961 23.5027 15.9987 23.5027C15.8013 23.5027 15.6058 23.4637 15.4235 23.388C15.2411 23.3123 15.0756 23.2013 14.9362 23.0615L4.9362 13.0615C4.6544 12.7797 4.49609 12.3975 4.49609 11.999C4.49609 11.6005 4.6544 11.2183 4.9362 10.9365C5.21799 10.6547 5.60018 10.4964 5.9987 10.4964C6.39721 10.4964 6.7794 10.6547 7.0612 10.9365L15.9999 19.8752L24.9387 10.9352C25.2205 10.6534 25.6027 10.4951 26.0012 10.4951C26.3997 10.4951 26.7819 10.6534 27.0637 10.9352C27.3455 11.217 27.5038 11.5992 27.5038 11.9977C27.5038 12.3962 27.3455 12.7784 27.0637 13.0602L27.0612 13.0615Z" fill="white"/>
</svg>
