<svg width="32" height="32" viewBox="0 0 32 32" fill="none" xmlns="http://www.w3.org/2000/svg">
<path d="M16 2C13.2311 2 10.5243 2.82109 8.22202 4.35943C5.91973 5.89776 4.12532 8.08427 3.06569 10.6424C2.00607 13.2006 1.72882 16.0155 2.26901 18.7313C2.80921 21.447 4.14258 23.9416 6.10051 25.8995C8.05845 27.8574 10.553 29.1908 13.2687 29.731C15.9845 30.2712 18.7994 29.9939 21.3576 28.9343C23.9157 27.8747 26.1022 26.0803 27.6406 23.778C29.1789 21.4757 30 18.7689 30 16C30 12.287 28.525 8.72601 25.8995 6.1005C23.274 3.475 19.713 2 16 2ZM16.1744 6.00001C17.9812 5.99806 19.7546 6.48616 21.3059 7.41233C22.8572 8.33849 24.1283 9.66805 24.9837 11.2594C25.8392 12.8508 26.2471 14.6444 26.1639 16.4492C26.0808 18.254 25.5097 20.0025 24.5114 21.5084L10.666 7.663C12.2981 6.57792 14.2145 5.99936 16.1744 6.00001ZM6.17446 16C6.17383 14.0401 6.75242 12.1237 7.83754 10.4916L21.683 24.337C20.177 25.3352 18.4285 25.9063 16.6237 25.9895C14.8189 26.0727 13.0253 25.6648 11.4339 24.8093C9.84256 23.9538 8.513 22.6828 7.58682 21.1315C6.66064 19.5802 6.17253 17.8067 6.17446 16Z" fill="white"/>
</svg>
