<svg xmlns="http://www.w3.org/2000/svg" width="32" height="32" fill="#ffffff" viewBox="0 0 256 256" data-darkreader-inline-fill="" style="--darkreader-inline-fill: var(--darkreader-background-ffffff, #181a1b);"><path d="M52.69,99.31a16,16,0,0,1,0-22.63l64-64a16,16,0,0,1,22.63,22.63l-64,64a16,16,0,0,1-22.63,0Zm190.63,17.37a16,16,0,0,0-22.63,0l-64,64a16,16,0,0,0,0,22.63h0a16,16,0,0,0,22.63,0l64-64A16,16,0,0,0,243.32,116.68Zm-35.11-15.8L155.12,47.79a4,4,0,0,0-5.66,0L87.8,109.45a4,4,0,0,0,0,5.66L103,130.34,28.69,204.69a16,16,0,0,0,22.62,22.62L125.66,153l15.23,15.23a4,4,0,0,0,5.66,0l61.66-61.66A4,4,0,0,0,208.21,100.88Z"></path></svg>