<svg width="32" height="32" viewBox="0 0 32 32" fill="none" xmlns="http://www.w3.org/2000/svg">
<path d="M18 2H14C11.879 2.00232 9.84549 2.84591 8.3457 4.3457C6.84591 5.84549 6.00232 7.87898 6 10V22C6.00232 24.121 6.84591 26.1545 8.3457 27.6543C9.84549 29.1541 11.879 29.9977 14 30H18C20.121 29.9977 22.1545 29.1541 23.6543 27.6543C25.1541 26.1545 25.9977 24.121 26 22V10C25.9977 7.87898 25.1541 5.84549 23.6543 4.3457C22.1545 2.84591 20.121 2.00232 18 2ZM18.2925 20.2925C18.4801 20.1049 18.7346 19.9994 19 19.9994C19.2654 19.9994 19.5199 20.1049 19.7075 20.2925C19.8951 20.4801 20.0006 20.7346 20.0006 21C20.0006 21.2654 19.8951 21.5199 19.7075 21.7075L16.7075 24.7075C16.6146 24.8005 16.5043 24.8742 16.3829 24.9246C16.2615 24.9749 16.1314 25.0008 16 25.0008C15.8686 25.0008 15.7385 24.9749 15.6171 24.9246C15.4957 24.8742 15.3854 24.8005 15.2925 24.7075L12.2925 21.7075C12.1049 21.5199 11.9994 21.2654 11.9994 21C11.9994 20.7346 12.1049 20.4801 12.2925 20.2925C12.4801 20.1049 12.7346 19.9994 13 19.9994C13.2654 19.9994 13.5199 20.1049 13.7075 20.2925L15 21.5863V10.4137L13.7075 11.7075C13.5199 11.8951 13.2654 12.0006 13 12.0006C12.7346 12.0006 12.4801 11.8951 12.2925 11.7075C12.1049 11.5199 11.9994 11.2654 11.9994 11C11.9994 10.7346 12.1049 10.4801 12.2925 10.2925L15.2925 7.2925C15.3854 7.19952 15.4957 7.12576 15.6171 7.07544C15.7385 7.02512 15.8686 6.99921 16 6.99921C16.1314 6.99921 16.2615 7.02512 16.3829 7.07544C16.5043 7.12576 16.6146 7.19952 16.7075 7.2925L19.7075 10.2925C19.8004 10.3854 19.8741 10.4957 19.9244 10.6171C19.9747 10.7385 20.0006 10.8686 20.0006 11C20.0006 11.1314 19.9747 11.2615 19.9244 11.3829C19.8741 11.5043 19.8004 11.6146 19.7075 11.7075C19.6146 11.8004 19.5043 11.8741 19.3829 11.9244C19.2615 11.9747 19.1314 12.0006 19 12.0006C18.8686 12.0006 18.7385 11.9747 18.6171 11.9244C18.4957 11.8741 18.3854 11.8004 18.2925 11.7075L17 10.4137V21.5863L18.2925 20.2925Z" fill="white"/>
</svg>
