<svg width="32" height="32" viewBox="0 0 32 32" fill="none" xmlns="http://www.w3.org/2000/svg">
<path d="M29.4164 12.9999L23.4639 18.9724C23.416 19.0203 23.3589 19.0579 23.2961 19.0831C23.2332 19.1082 23.1659 19.1203 23.0983 19.1187C23.0306 19.1171 22.9639 19.1017 22.9024 19.0735C22.8408 19.0454 22.7856 19.005 22.7401 18.9549L13.5001 8.78366C13.414 8.68867 13.3677 8.56422 13.3707 8.43604C13.3737 8.30786 13.4259 8.18574 13.5164 8.09491L19.0001 2.58741C19.1859 2.40165 19.4064 2.25429 19.649 2.15375C19.8917 2.05321 20.1518 2.00146 20.4145 2.00146C20.6772 2.00146 20.9373 2.05321 21.18 2.15375C21.4227 2.25429 21.6432 2.40165 21.8289 2.58741L29.4151 10.1724C29.7901 10.5473 30.0008 11.0557 30.0011 11.5859C30.0013 12.1161 29.791 12.6247 29.4164 12.9999ZM6.74013 4.32741C6.64444 4.22263 6.52754 4.13941 6.39721 4.08328C6.26687 4.02716 6.12609 3.99941 5.9842 4.0019C5.84232 4.00438 5.70259 4.03703 5.5743 4.09768C5.44601 4.15833 5.3321 4.24559 5.24013 4.35366C5.08411 4.5454 5.00283 4.78716 5.01133 5.03421C5.01983 5.28126 5.11754 5.51686 5.28638 5.69741L8.41513 9.14366C7.28263 9.38616 6.02513 9.92116 4.75013 10.9537C4.53129 11.1296 4.35195 11.3497 4.22381 11.5996C4.09566 11.8495 4.02157 12.1235 4.00635 12.4039C3.99114 12.6843 4.03515 12.9648 4.13552 13.2271C4.23588 13.4894 4.39036 13.7275 4.58888 13.9262L10.6251 19.9637L5.31888 25.2674C5.13397 25.4465 5.02352 25.6888 5.00961 25.9458C4.9957 26.2029 5.07937 26.4557 5.24388 26.6537C5.33371 26.7577 5.44403 26.8421 5.56794 26.9016C5.69185 26.9611 5.82669 26.9944 5.96405 26.9994C6.1014 27.0045 6.23832 26.9811 6.36626 26.9309C6.4942 26.8807 6.61041 26.8046 6.70763 26.7074L12.0364 21.3749L18.0726 27.4112C18.2582 27.5975 18.4787 27.7454 18.7215 27.8465C18.9643 27.9475 19.2246 27.9996 19.4876 27.9999C19.5351 27.9999 19.5814 27.9999 19.6289 27.9999C19.914 27.9802 20.1915 27.8993 20.4425 27.7627C20.6936 27.6262 20.9123 27.4372 21.0839 27.2087C21.678 26.4347 22.1672 25.5857 22.5389 24.6837L25.2601 27.6774C25.3479 27.7764 25.4545 27.857 25.5737 27.9145C25.6929 27.972 25.8223 28.0052 25.9545 28.0123C26.0866 28.0194 26.2189 28.0003 26.3435 27.9559C26.4682 27.9115 26.5828 27.8428 26.6807 27.7538C26.7787 27.6648 26.858 27.5573 26.914 27.4374C26.9701 27.3175 27.0018 27.1877 27.0073 27.0555C27.0128 26.9233 26.9921 26.7913 26.9462 26.6672C26.9003 26.5431 26.8303 26.4293 26.7401 26.3324L6.74013 4.32741Z" fill="white"/>
</svg>
