<svg width="32" height="32" viewBox="0 0 32 32" fill="none" xmlns="http://www.w3.org/2000/svg">
<path d="M15.5 27C15.5 27.3978 15.342 27.7794 15.0607 28.0607C14.7794 28.342 14.3978 28.5 14 28.5H6C5.60218 28.5 5.22064 28.342 4.93934 28.0607C4.65804 27.7794 4.5 27.3978 4.5 27V5C4.5 4.60218 4.65804 4.22064 4.93934 3.93934C5.22064 3.65804 5.60218 3.5 6 3.5H14C14.3978 3.5 14.7794 3.65804 15.0607 3.93934C15.342 4.22064 15.5 4.60218 15.5 5C15.5 5.39782 15.342 5.77936 15.0607 6.06066C14.7794 6.34196 14.3978 6.5 14 6.5H7.5V25.5H14C14.3978 25.5 14.7794 25.658 15.0607 25.9393C15.342 26.2206 15.5 26.6022 15.5 27ZM29.0613 14.9388L24.0613 9.93875C23.7795 9.65696 23.3973 9.49865 22.9988 9.49865C22.6002 9.49865 22.218 9.65696 21.9363 9.93875C21.6545 10.2205 21.4961 10.6027 21.4961 11.0013C21.4961 11.3998 21.6545 11.782 21.9363 12.0638L24.375 14.5H14C13.6022 14.5 13.2206 14.658 12.9393 14.9393C12.658 15.2206 12.5 15.6022 12.5 16C12.5 16.3978 12.658 16.7794 12.9393 17.0607C13.2206 17.342 13.6022 17.5 14 17.5H24.375L21.935 19.9387C21.6532 20.2205 21.4949 20.6027 21.4949 21.0012C21.4949 21.3998 21.6532 21.782 21.935 22.0637C22.2168 22.3455 22.599 22.5039 22.9975 22.5039C23.396 22.5039 23.7782 22.3455 24.06 22.0637L29.06 17.0637C29.1999 16.9245 29.311 16.759 29.3868 16.5767C29.4626 16.3944 29.5017 16.1989 29.5018 16.0015C29.5019 15.8041 29.4631 15.6086 29.3875 15.4262C29.3119 15.2438 29.201 15.0782 29.0613 14.9388Z" fill="white"/>
</svg>
